<svg width="24" height="18" viewBox="0 0 24 18" fill="none" xmlns="http://www.w3.org/2000/svg">
<path fill-rule="evenodd" clip-rule="evenodd" d="M12 5.14286C9.61331 5.14286 7.67852 6.86976 7.67852 9C7.67852 11.1302 9.61331 12.8571 12 12.8571C14.3867 12.8571 16.3215 11.1302 16.3215 9C16.3215 6.86976 14.3867 5.14286 12 5.14286ZM9.40711 9C9.40711 7.72186 10.568 6.68571 12 6.68571C13.432 6.68571 14.5929 7.72186 14.5929 9C14.5929 10.2781 13.432 11.3143 12 11.3143C10.568 11.3143 9.40711 10.2781 9.40711 9Z" fill="white"/>
<path fill-rule="evenodd" clip-rule="evenodd" d="M12 0C9.53277 0 7.30196 1.08925 5.49096 2.41274C3.67006 3.74345 2.18114 5.37804 1.18063 6.62196L1.09812 6.72438C0.495804 7.47137 0 8.08627 0 9C0 9.91373 0.495804 10.5286 1.09812 11.2756L1.18063 11.378C2.18114 12.622 3.67006 14.2566 5.49096 15.5873C7.30196 16.9108 9.53277 18 12 18C14.4672 18 16.698 16.9108 18.509 15.5873C20.3299 14.2566 21.8189 12.622 22.8194 11.378L22.9019 11.2756C23.5042 10.5286 24 9.91373 24 9C24 8.08628 23.5042 7.47138 22.9019 6.72438L22.8194 6.62196C21.8189 5.37804 20.3299 3.74345 18.509 2.41274C16.698 1.08925 14.4672 0 12 0ZM2.58484 7.52172C3.54049 6.33359 4.9283 4.81797 6.58604 3.60649C8.25367 2.38779 10.1034 1.54286 12 1.54286C13.8966 1.54286 15.7463 2.38779 17.414 3.60649C19.0717 4.81797 20.4595 6.33359 21.4152 7.52172C22.1342 8.41571 22.2714 8.63123 22.2714 9C22.2714 9.36877 22.1342 9.58429 21.4152 10.4783C20.4595 11.6664 19.0717 13.182 17.414 14.3935C15.7463 15.6122 13.8966 16.4571 12 16.4571C10.1034 16.4571 8.25367 15.6122 6.58604 14.3935C4.9283 13.182 3.54049 11.6664 2.58484 10.4783C1.86579 9.58429 1.72859 9.36877 1.72859 9C1.72859 8.63123 1.86579 8.41571 2.58484 7.52172Z" fill="white"/>
</svg>
